<svg version="1.1" xmlns="http://www.w3.org/2000/svg">
  <!--xmlns:xlink="http://www.w3.org/1999/xlink"-->
  <!--&gt;-->

  <symbol id="mediaRight" viewBox="0 0 478.695 225.086">
    <path d="M191.075 0.10413l-169.844 0c-11.6792,0 -21.2314,9.55544 -21.2314,21.2319l0 183.998c0,8.94144 5.59924,16.636 13.4648,19.7521l185.376 0c7.86609,-3.11581 13.4656,-10.8104 13.4656,-19.7521l0 -183.998c0,-11.6767 -9.55225,-21.2319 -21.2314,-21.2319l0 0zm-7.07592 198.154l-155.692 0 0 -169.845 155.692 0 0 169.845zm-127.384 -99.0772l99.075 0 0 14.1538 -99.075 0 0 -14.1538zm0 28.3084l99.075 0 0 14.1538 -99.075 -0.000490022 0 -14.1533zm0 28.3057l99.075 0 0 14.1545 -99.075 0 0 -14.1545zm0 -84.9204l99.075 0 0 14.1523 -99.075 0 0 -14.1523z"/>
    <path d="M462.888 16.0762c0.00906542,0.0110255 0.0186209,0.021316 0.0284213,0.0320965l0 192.872c-0.00980045,0.0102905 -0.0193559,0.0203359 -0.0284213,0.0296464l-225.029 0c-0.0100455,-0.00931043 -0.0203359,-0.0193559 -0.0296464,-0.0296464l0 -192.872c0.0110255,-0.0120056 0.0203359,-0.021071 0.0296464,-0.0303814l225.029 -0.00171508zm15.8069 -3.07538l0 199.085c-1.44557,7.38415 -7.98565,13.0008 -15.7785,13.0008l-225.087 0c-8.84295,0 -16.0764,-7.23396 -16.0764,-16.0769l0 -192.933c0,-8.84099 7.23347,-16.0762 16.0764,-16.0762l225.087 0c7.79283,0 14.3329,5.61786 15.7785,13.0008zm-15.7785 -13.0008l0 0z"/>
    <path d="M430.761 56.2722c0,13.3191 -10.7972,24.1162 -24.1165,24.1162 -13.3191,0 -24.1162,-10.7972 -24.1162,-24.1162 0,-13.3193 10.7972,-24.1162 24.1162,-24.1162 13.3193,0 24.1165,10.7969 24.1165,24.1162z"/>
    <polygon points="446.839,192.931 253.909,192.931 253.909,160.776 310.18,64.3108 374.49,144.698 390.568,144.698 446.839,96.4658 "/>
  </symbol>

  <symbol id="mediaLeft" viewBox="0 0 473.13 223.095">
    <path d="M452.087 0.103209l-168.341 0c-11.5759,0 -21.0436,9.4709 -21.0436,21.0441l0 182.371c0,8.86234 5.54971,16.4888 13.3457,19.5773l183.737 0c7.7965,-3.08824 13.3464,-10.7147 13.3464,-19.5773l0 -182.371c0,-11.5734 -9.46775,-21.0441 -21.0436,-21.0441l0 0zm-7.01333 196.401l-154.315 0 0 -168.343 154.315 0 0 168.343zm-126.257 -98.2006l98.1985 0 0 14.0286 -98.1985 0 0 -14.0286zm0 28.0579l98.1985 0 0 14.0286 -98.1985 -0.000485687 0 -14.0281zm0 28.0552l98.1985 0 0 14.0293 -98.1985 0 0 -14.0293zm0 -84.1691l98.1985 0 0 14.0271 -98.1985 0 0 -14.0271z"/>
    <path d="M239.001 15.9339c0.00898522,0.010928 0.0184561,0.0211274 0.0281699,0.0318125l0 191.165c-0.00971375,0.0101994 -0.0191847,0.020156 -0.0281699,0.0293841l-223.038 0c-0.00995659,-0.00922806 -0.020156,-0.0191847 -0.0293841,-0.0293841l0 -191.165c0.010928,-0.0118993 0.020156,-0.0208846 0.0293841,-0.0301126l223.038 -0.00169991zm15.6671 -3.04817l0 197.324c-1.43278,7.31882 -7.915,12.8858 -15.6389,12.8858l-223.095 0c-8.76471,0 -15.9342,-7.16996 -15.9342,-15.9347l0 -191.227c0,-8.76277 7.16947,-15.9339 15.9342,-15.9339l223.095 0c7.72389,0 14.2061,5.56816 15.6389,12.8858zm-15.6389 -12.8858l0 0z"/>
    <path d="M207.159 55.7744c0,13.2012 -10.7016,23.9029 -23.9031,23.9029 -13.2012,0 -23.9029,-10.7016 -23.9029,-23.9029 0,-13.2015 10.7016,-23.9029 23.9029,-23.9029 13.2015,0 23.9031,10.7014 23.9031,23.9029z"/>
    <polygon points="223.094,191.224 31.8708,191.224 31.8708,159.354 87.644,63.7419 151.385,143.418 167.321,143.418 223.094,95.6124 "/>
  </symbol>

  <symbol id="textOnly" viewBox="0 0 512 512">
    <path d="M432 0h-384c-26.4 0-48 21.6-48 48v416c0 26.4 21.6 48 48 48h384c26.4 0 48-21.6 48-48v-416c0-26.4-21.6-48-48-48zM416 448h-352v-384h352v384zM128 224h224v32h-224zM128 288h224v32h-224zM128 352h224v32h-224zM128 160h224v32h-224z"></path>
  </symbol>

  <symbol id="mediaOnly" viewBox="0 0 512 512">
    <path d="M479.942 64c0.020 0.017 0.041 0.038 0.058 0.058v383.885c-0.017 0.020-0.038 0.041-0.058 0.058h-447.885c-0.020-0.017-0.041-0.038-0.057-0.058v-383.886c0.017-0.020 0.038-0.041 0.057-0.057h447.885zM480 32h-448c-17.6 0-32 14.4-32 32v384c0 17.6 14.4 32 32 32h448c17.6 0 32-14.4 32-32v-384c0-17.6-14.4-32-32-32v0z"></path>
    <path d="M416 144c0 26.51-21.49 48-48 48s-48-21.49-48-48 21.49-48 48-48 48 21.49 48 48z"></path>
    <path d="M448 416h-384v-64l112-192 128 160h32l112-96z" />
  </symbol>
</svg>
