<svg version="1.1" xmlns="http://www.w3.org/2000/svg" width="512" height="512" viewBox="0 0 512 512">
  <g id="icomoon-ignore">
  </g>
  <path class="fil0" d="M153.022 189.681l-119.497 0c-8.2155,0 -14.9372,6.72165 -14.9372,14.9372l0 129.455c0,8.2155 6.72165,14.9372 14.9372,14.9372l119.497 -0.000172381c8.2155,0 14.9372,-6.72165 14.9372,-14.9372l0 -129.455c0,-8.21533 -6.72165,-14.9372 -14.9372,-14.9372l0 0.000172381zm-4.97905 139.413l-109.539 0 0 -119.497 109.539 0 0 119.497zm-89.6229 -69.7067l69.7067 0 0 9.9581 -69.7067 0 0 -9.9581zm0 19.9162l69.7067 0 0 9.9581 -69.7067 0 0 -9.9581zm0 19.9162l69.7067 0 0 9.9581 -69.7067 0 0 -9.9581zm0 -59.7486l69.7067 0 0 9.9581 -69.7067 0 0 -9.9581z"/>
  <path class="fil0" d="M344.258 200.919c0.00706762,0.00603333 0.01448,0.0134457 0.020341,0.020341l0 135.698c-0.00586095,0.00706762 -0.0134457,0.0143076 -0.020341,0.020341l-158.321 0.000172381c-0.00706762,-0.00603333 -0.01448,-0.0134457 -0.0201686,-0.020341l0 -135.698c0.00603333,-0.00706762 0.0134457,-0.01448 0.0201686,-0.0201686l158.321 -0.000172381zm0.0205133 -11.3116l-158.362 0c-6.2214,0 -11.3116,5.09024 -11.3116,11.3116l0 135.739c0,6.2214 5.09024,11.3116 11.3116,11.3116l158.362 0c6.2214,0 11.3116,-5.09024 11.3116,-11.3116l0 -135.739c0,-6.2214 -5.09024,-11.3116 -11.3116,-11.3116l0 0z"/>
  <path class="fil0" d="M321.656 229.198c0,9.3708 -7.59648,16.9673 -16.9675,16.9673 -9.3708,0 -16.9673,-7.59648 -16.9673,-16.9673 0,-9.37097 7.59648,-16.9673 16.9673,-16.9673 9.37097,0 16.9675,7.59631 16.9675,16.9673z"/>
  <polygon class="fil0" points="332.967,325.346 197.229,325.346 197.229,302.723 236.819,234.854 282.065,291.412 293.377,291.412 332.967,257.477 "/>
</svg>
