<svg version="1.1" xmlns="http://www.w3.org/2000/svg" width="512" height="512" viewBox="0 0 512 512">
  <g id="icomoon-ignore">
  </g>
  <path class="fil0" d="M192.91 110.036l-69.3215 0c-4.7659,0 -8.6652,3.8993 -8.6652,8.6652l0 75.0983c0,4.7659 3.8993,8.6652 8.6652,8.6652l69.3215 -0.0001c4.7659,0 8.6652,-3.8993 8.6652,-8.6652l0 -75.0983c0,-4.7658 -3.8993,-8.6652 -8.6652,-8.6652l0 0.0001zm-2.8884 80.8751l-63.5447 0 0 -69.3216 63.5447 0 0 69.3216zm-51.9912 -40.4376l40.4376 0 0 5.7768 -40.4376 0 0 -5.7768zm0 11.5536l40.4376 0 0 5.7768 -40.4376 0 0 -5.7768zm0 11.5536l40.4376 0 0 5.7768 -40.4376 0 0 -5.7768zm0 -34.6608l40.4376 0 0 5.7768 -40.4376 0 0 -5.7768z"/>
  <path class="fil0" d="M103.37 117.027c0.0041,0.0035 0.0084,0.0078 0.0118,0.0118l0 78.7199c-0.0034,0.0041 -0.0078,0.0083 -0.0118,0.0118l-91.8437 0.0001c-0.0041,-0.0035 -0.0084,-0.0078 -0.0117,-0.0118l0 -78.72c0.0035,-0.0041 0.0078,-0.0084 0.0117,-0.0117l91.8437 -0.0001zm0.0119 -6.562l-91.8673 0c-3.6091,0 -6.562,2.9529 -6.562,6.562l0 78.7434c0,3.6091 2.9529,6.562 6.562,6.562l91.8673 0c3.6091,0 6.562,-2.9529 6.562,-6.562l0 -78.7434c0,-3.6091 -2.9529,-6.562 -6.562,-6.562l0 0z"/>
  <path class="fil0" d="M90.258 133.432c0,5.4361 -4.4068,9.8429 -9.843,9.8429 -5.4361,0 -9.8429,-4.4068 -9.8429,-9.8429 0,-5.4362 4.4068,-9.8429 9.8429,-9.8429 5.4362,0 9.843,4.4067 9.843,9.8429z"/>
  <polygon class="fil0" points="96.8199,189.209 18.0766,189.209 18.0766,176.085 41.0433,136.713 67.2912,169.523 73.8531,169.523 96.8199,149.837 "/>
</svg>
