<?xml version="1.0" encoding="UTF-8"?>
<!DOCTYPE svg PUBLIC "-//W3C//DTD SVG 1.1//EN" "http://www.w3.org/Graphics/SVG/1.1/DTD/svg11.dtd">
<!-- Creator: CorelDRAW -->
<svg xmlns="http://www.w3.org/2000/svg" xml:space="preserve" width="512px" height="256px" style="shape-rendering:geometricPrecision; text-rendering:geometricPrecision; image-rendering:optimizeQuality; fill-rule:evenodd; clip-rule:evenodd"
viewBox="0 0 473.13 223.095"
 xmlns:xlink="http://www.w3.org/1999/xlink">
 <defs>
  <style type="text/css">
   <![CDATA[
    .fil0 {fill:black}
   ]]>
  </style>
 </defs>
 <g id="Слой_x0020_1">
  <metadata id="CorelCorpID_0Corel-Layer"/>
  <path class="fil0" d="M452.087 0.103209l-168.341 0c-11.5759,0 -21.0436,9.4709 -21.0436,21.0441l0 182.371c0,8.86234 5.54971,16.4888 13.3457,19.5773l183.737 0c7.7965,-3.08824 13.3464,-10.7147 13.3464,-19.5773l0 -182.371c0,-11.5734 -9.46775,-21.0441 -21.0436,-21.0441l0 0zm-7.01333 196.401l-154.315 0 0 -168.343 154.315 0 0 168.343zm-126.257 -98.2006l98.1985 0 0 14.0286 -98.1985 0 0 -14.0286zm0 28.0579l98.1985 0 0 14.0286 -98.1985 -0.000485687 0 -14.0281zm0 28.0552l98.1985 0 0 14.0293 -98.1985 0 0 -14.0293zm0 -84.1691l98.1985 0 0 14.0271 -98.1985 0 0 -14.0271z"/>
  <path class="fil0" d="M239.001 15.9339c0.00898522,0.010928 0.0184561,0.0211274 0.0281699,0.0318125l0 191.165c-0.00971375,0.0101994 -0.0191847,0.020156 -0.0281699,0.0293841l-223.038 0c-0.00995659,-0.00922806 -0.020156,-0.0191847 -0.0293841,-0.0293841l0 -191.165c0.010928,-0.0118993 0.020156,-0.0208846 0.0293841,-0.0301126l223.038 -0.00169991zm15.6671 -3.04817l0 197.324c-1.43278,7.31882 -7.915,12.8858 -15.6389,12.8858l-223.095 0c-8.76471,0 -15.9342,-7.16996 -15.9342,-15.9347l0 -191.227c0,-8.76277 7.16947,-15.9339 15.9342,-15.9339l223.095 0c7.72389,0 14.2061,5.56816 15.6389,12.8858zm-15.6389 -12.8858l0 0z"/>
  <path class="fil0" d="M207.159 55.7744c0,13.2012 -10.7016,23.9029 -23.9031,23.9029 -13.2012,0 -23.9029,-10.7016 -23.9029,-23.9029 0,-13.2015 10.7016,-23.9029 23.9029,-23.9029 13.2015,0 23.9031,10.7014 23.9031,23.9029z"/>
  <polygon class="fil0" points="223.094,191.224 31.8708,191.224 31.8708,159.354 87.644,63.7419 151.385,143.418 167.321,143.418 223.094,95.6124 "/>
 </g>
</svg>
