<?xml version="1.0" encoding="UTF-8"?>
<!DOCTYPE svg PUBLIC "-//W3C//DTD SVG 1.1//EN" "http://www.w3.org/Graphics/SVG/1.1/DTD/svg11.dtd">
<!-- Creator: CorelDRAW -->
<svg xmlns="http://www.w3.org/2000/svg" xml:space="preserve" width="512px" height="256px" style="shape-rendering:geometricPrecision; text-rendering:geometricPrecision; image-rendering:optimizeQuality; fill-rule:evenodd; clip-rule:evenodd"
viewBox="0 0 478.695 225.086"
 xmlns:xlink="http://www.w3.org/1999/xlink">
 <defs>
  <style type="text/css">
   <![CDATA[
    .fil0 {fill:black}
   ]]>
  </style>
 </defs>
 <g id="Слой_x0020_1">
  <metadata id="CorelCorpID_0Corel-Layer"/>
  <path class="fil0" d="M191.075 0.10413l-169.844 0c-11.6792,0 -21.2314,9.55544 -21.2314,21.2319l0 183.998c0,8.94144 5.59924,16.636 13.4648,19.7521l185.376 0c7.86609,-3.11581 13.4656,-10.8104 13.4656,-19.7521l0 -183.998c0,-11.6767 -9.55225,-21.2319 -21.2314,-21.2319l0 0zm-7.07592 198.154l-155.692 0 0 -169.845 155.692 0 0 169.845zm-127.384 -99.0772l99.075 0 0 14.1538 -99.075 0 0 -14.1538zm0 28.3084l99.075 0 0 14.1538 -99.075 -0.000490022 0 -14.1533zm0 28.3057l99.075 0 0 14.1545 -99.075 0 0 -14.1545zm0 -84.9204l99.075 0 0 14.1523 -99.075 0 0 -14.1523z"/>
  <path class="fil0" d="M462.888 16.0762c0.00906542,0.0110255 0.0186209,0.021316 0.0284213,0.0320965l0 192.872c-0.00980045,0.0102905 -0.0193559,0.0203359 -0.0284213,0.0296464l-225.029 0c-0.0100455,-0.00931043 -0.0203359,-0.0193559 -0.0296464,-0.0296464l0 -192.872c0.0110255,-0.0120056 0.0203359,-0.021071 0.0296464,-0.0303814l225.029 -0.00171508zm15.8069 -3.07538l0 199.085c-1.44557,7.38415 -7.98565,13.0008 -15.7785,13.0008l-225.087 0c-8.84295,0 -16.0764,-7.23396 -16.0764,-16.0769l0 -192.933c0,-8.84099 7.23347,-16.0762 16.0764,-16.0762l225.087 0c7.79283,0 14.3329,5.61786 15.7785,13.0008zm-15.7785 -13.0008l0 0z"/>
  <path class="fil0" d="M430.761 56.2722c0,13.3191 -10.7972,24.1162 -24.1165,24.1162 -13.3191,0 -24.1162,-10.7972 -24.1162,-24.1162 0,-13.3193 10.7972,-24.1162 24.1162,-24.1162 13.3193,0 24.1165,10.7969 24.1165,24.1162z"/>
  <polygon class="fil0" points="446.839,192.931 253.909,192.931 253.909,160.776 310.18,64.3108 374.49,144.698 390.568,144.698 446.839,96.4658 "/>
 </g>
</svg>
